<svg xmlns="http://www.w3.org/2000/svg" xmlns:xlink="http://www.w3.org/1999/xlink" xmlns:lucid="lucid" width="1460" height="1320"><g transform="translate(-220 20)" lucid:page-tab-id="0_0"><path d="M0 0h1870.4v1323.2H0z" fill="#fff"/><path d="M240 200h1420v1080H240z" stroke="#232f3e" stroke-width="2" fill="#fff" fill-opacity="0"/><path d="M240 200h56v56h-56v-56z" stroke="#fff" stroke-opacity="0" fill="#232f3e"/><path d="M280.88 241.22h-25c-4.13.05-7.57-3.1-7.9-7.2v-.64c-.15-3.4 1.97-6.38 5.25-7.36v-.66c.12-4.22 2.44-7.75 6.24-9.57 4.12-1.86 8.73-.96 11.8 2.3 1.1 1.1 1.85 2.2 2.45 3.6 1.2-1 2.72-1.32 4.24-.9 2.24.8 3.68 2.74 3.76 5.1 3.68.65 6.32 3.8 6.28 7.56 0 7.07-7.04 7.73-7.12 7.76zm-26.7-13.88c-2.83.6-4.75 3.14-4.6 6.04v.53c.3 3.33 3.1 5.84 6.4 5.76h24.98c3.04-.3 5.4-2.64 5.68-5.7.28-3.43-2.24-6.5-5.68-6.78-.44-.05-.72-.44-.64-.87.08-1.83-1-3.44-2.72-4.13-1.32-.37-2.64.13-3.44 1.24-.2.25-.44.38-.76.33-.28-.05-.48-.24-.6-.5-.6-1.6-1.4-2.85-2.6-4.04-2.68-2.8-6.6-3.6-10.13-2-3.24 1.6-5.2 4.63-5.32 8.24-.04.4-.04.74 0 1.14.04.4-.2.76-.6.84z" stroke="#fff" stroke-opacity="0" fill="#fff"/><use xlink:href="#a" transform="matrix(1,0,0,1,311,220) translate(0 14.4)"/><use xlink:href="#b" transform="matrix(1,0,0,1,311,220) translate(45.3 14.4)"/><path d="M430 740h350v300H430z" fill="#147eba" fill-opacity=".13"/><path d="M430 740h56v56h-56v-56z" stroke="#fff" stroke-opacity="0" fill="#147eba"/><path d="M473.38 762.18c-.15-.17-.34-.25-.56-.25h-5.15v-5.58c-.03-2.54-.96-4.7-2.84-6.4-1.9-1.84-4.15-2.75-6.77-2.75-2.65 0-4.9.83-6.8 2.62-1.9 1.7-2.87 3.87-2.9 6.4v5.66h-5.15c-.24 0-.43.1-.58.25-.16.17-.22.34-.22.6V788c0 .43.34.8.8.8h29.6c.46 0 .8-.37.8-.8v-25.28c0-.2-.06-.38-.22-.54zm-23.46-5.9c.03-2.13.8-3.88 2.37-5.3 1.6-1.5 3.52-2.2 5.73-2.2 2.22 0 4.12.75 5.7 2.25 1.54 1.4 2.32 3.2 2.32 5.32v5.58H449.9zm22.1 30.94h-28.03v-23.7h28z" stroke="#fff" stroke-opacity="0" fill="#fff"/><path d="M457.2 777.3v6.25h1.6v-6.23c2.13-.4 3.62-2.2 3.63-4.35 0-2.43-1.97-4.4-4.4-4.43-2.2-.03-4.06 1.5-4.44 3.68-.42 2.4 1.2 4.68 3.6 5.1zm.82-7.15c.78 0 1.44.27 2 .82.54.56.82 1.22.8 2 .03 1.55-1.2 2.8-2.74 2.82h-.06c-1.56.1-2.92-1.06-3.04-2.62-.12-1.56 1.05-2.93 2.6-3.03.16-.02.28-.02.44 0z" stroke="#fff" stroke-opacity="0" fill="#fff"/><use xlink:href="#c" transform="matrix(1,0,0,1,501,760) translate(0 14.4)"/><use xlink:href="#d" transform="matrix(1,0,0,1,501,760) translate(60.9 14.4)"/><use xlink:href="#e" transform="matrix(1,0,0,1,501,760) translate(122.9 14.4)"/><path d="M1140 740h380v300h-380z" fill="#147eba" fill-opacity=".13"/><path d="M1140 740h56v56h-56v-56z" stroke="#fff" stroke-opacity="0" fill="#147eba"/><path d="M1183.38 762.18c-.15-.17-.34-.25-.56-.25h-5.15v-5.58c-.03-2.54-.96-4.7-2.84-6.4-1.9-1.84-4.15-2.75-6.77-2.75-2.65 0-4.9.83-6.8 2.62-1.9 1.7-2.87 3.87-2.9 6.4v5.66h-5.15c-.24 0-.43.1-.58.25-.16.17-.22.34-.22.6V788c0 .43.34.8.8.8h29.6c.46 0 .8-.37.8-.8v-25.28c0-.2-.06-.38-.22-.54zm-23.46-5.9c.03-2.13.8-3.88 2.37-5.3 1.6-1.5 3.52-2.2 5.73-2.2 2.22 0 4.12.75 5.7 2.25 1.54 1.4 2.32 3.2 2.32 5.32v5.58h-16.16zm22.1 30.94h-28.03v-23.7h28z" stroke="#fff" stroke-opacity="0" fill="#fff"/><path d="M1167.2 777.3v6.25h1.6v-6.23c2.13-.4 3.62-2.2 3.63-4.35 0-2.43-1.97-4.4-4.4-4.43-2.2-.03-4.06 1.5-4.44 3.68-.42 2.4 1.2 4.68 3.6 5.1zm.82-7.15c.78 0 1.44.27 2 .82.54.56.82 1.22.8 2 .03 1.55-1.2 2.8-2.74 2.82h-.06c-1.56.1-2.92-1.06-3.04-2.62-.12-1.56 1.05-2.93 2.6-3.03.16-.02.28-.02.44 0z" stroke="#fff" stroke-opacity="0" fill="#fff"/><use xlink:href="#c" transform="matrix(1,0,0,1,1211,760) translate(0 14.4)"/><use xlink:href="#d" transform="matrix(1,0,0,1,1211,760) translate(60.9 14.4)"/><use xlink:href="#f" transform="matrix(1,0,0,1,1211,760) translate(122.9 14.4)"/><path d="M260 260h1360v840H260z" stroke="#248814" stroke-width="2" fill="#fff" fill-opacity="0"/><path d="M260 260h56v56h-56v-56z" stroke="#fff" stroke-opacity="0" fill="#248814"/><path d="M291.76 288.3h-1.18v-1.1c-.12-1.73-1.48-3.07-3.2-3.2-1.9-.13-3.54 1.3-3.67 3.2v1.07h-1.17c-.44 0-.8.36-.8.8v6.13c0 .44.36.8.8.8h9.23c.44 0 .8-.36.8-.8v-6.1c0-.44-.36-.8-.8-.8zm-6.4-1.06c.1-1.02 1-1.77 2-1.67.9.08 1.58.77 1.67 1.67v1.06h-3.72zm5.65 7.08h-7.67v-4.42h7.63z" stroke="#fff" stroke-opacity="0" fill="#fff"/><path d="M302.27 285.74c-.08-2.44-1.58-4.47-3.87-5.3-1.58-.46-3.16-.13-4.4.9-.68-1.44-1.47-2.6-2.6-3.75-3.24-3.36-7.94-4.3-12.18-2.4-4.04 1.9-6.4 5.63-6.54 10.05v.7c-3.4.98-5.66 4.08-5.5 7.65v.63c.4 4.28 3.92 7.52 8.2 7.47h26s7.42-.63 7.42-8.1c.04-3.9-2.66-7.2-6.53-7.86zm-.96 14.4h-25.9c-3.47.05-6.3-2.53-6.6-5.97v-.52c-.15-3.05 1.93-5.7 4.92-6.3.38-.12.63-.48.6-.9-.06-.4-.06-.73 0-1.14.07-3.78 2.1-6.94 5.52-8.6 1.25-.56 2.4-.8 3.83-.84 2.62.08 4.87 1.04 6.7 2.94 1.25 1.3 2.04 2.6 2.62 4.3.03.15.1.28.24.37.37.27.87.2 1.12-.17.83-1.18 2.25-1.67 3.62-1.3 1.8.72 2.87 2.4 2.83 4.32-.07.4.22.82.64.9 3.57.36 6.2 3.55 5.82 7.12-.3 3.13-2.7 5.52-5.82 5.85z" stroke="#fff" stroke-opacity="0" fill="#fff"/><use xlink:href="#g" transform="matrix(1,0,0,1,331,280) translate(0 14.4)"/><use xlink:href="#h" transform="matrix(1,0,0,1,331,280) translate(55.5 14.4)"/><use xlink:href="#i" transform="matrix(1,0,0,1,331,280) translate(116.4 14.4)"/><path d="M360 320h480v760H360z" fill="#fff" fill-opacity="0"/><path d="M372 320h8m8 0h8m8 0h8m8 0h8m8 0h8m8 0h8m8 0h8m8 0h8m8 0h8m8 0h8m8 0h8m8 0h8m8 0h8m8 0h8m8 0h8m8 0h8m8 0h8m8 0h8m8 0h8m8 0h8m8 0h8m8 0h8m8 0h8m8 0h8m8 0h8m8 0h8m8 0h8m8 0h8m8 0h8m8 0h4v3.96m0 7.92v7.9m0 7.93v7.92m0 7.92v7.92m0 7.9v7.93m0 7.9v7.92m0 7.92v7.92m0 7.9v7.93m0 7.9v7.92m0 7.92v7.92m0 7.9v7.93m0 7.9v7.92m0 7.92v7.92m0 7.9v7.93m0 7.9v7.92m0 7.92v7.92m0 7.9v7.93m0 7.9v7.92m0 7.92v7.92m0 7.9v7.93m0 7.9v7.92m0 7.92v7.92m0 7.9v7.93m0 7.9v7.92m0 7.92v7.92m0 7.9v7.93m0 7.9v7.92m0 7.92v7.92m0 7.9v7.93m0 7.9v7.92m0 7.92v7.92m0 7.9v7.93m0 7.9v7.92m0 7.92v7.92m0 7.9v7.93m0 7.9v7.92m0 7.92v7.92m0 7.9v7.93m0 7.9v7.92m0 7.92v7.92m0 7.9v7.93m0 7.9v7.92m0 7.92v7.92m0 7.9v7.93m0 7.9v7.92m0 7.92v7.92m0 7.9v7.93m0 7.9v7.92m0 7.92v3.96h-4m-8 0h-8m-8 0h-8m-8 0h-8m-8 0h-8m-8 0h-8m-8 0h-8m-8 0h-8m-8 0h-8m-8 0h-8m-8 0h-8m-8 0h-8m-8 0h-8m-8 0h-8m-8 0h-8m-8 0h-8m-8 0h-8m-8 0h-8m-8 0h-8m-8 0h-8m-8 0h-8m-8 0h-8m-8 0h-8m-8 0h-8m-8 0h-8m-8 0h-8m-8 0h-8m-8 0h-8m-8 0h-8m-8 0h-8m-8 0h-4v-3.96m0-7.9v-7.93m0-7.9v-7.92m0-7.92v-7.92m0-7.9v-7.93m0-7.9v-7.92m0-7.92v-7.92m0-7.9v-7.93m0-7.9v-7.92m0-7.92v-7.92m0-7.9v-7.93m0-7.9v-7.92m0-7.92v-7.92m0-7.9v-7.93m0-7.9v-7.92m0-7.92v-7.92m0-7.9v-7.93m0-7.9v-7.92m0-7.92v-7.92m0-7.9v-7.93m0-7.9v-7.92m0-7.92v-7.92m0-7.9v-7.93m0-7.9v-7.92m0-7.92v-7.92m0-7.9v-7.93m0-7.9v-7.92m0-7.92v-7.92m0-7.9v-7.93m0-7.9v-7.92m0-7.92v-7.92m0-7.9v-7.93m0-7.9v-7.92m0-7.92v-7.92m0-7.9v-7.93m0-7.9v-7.92m0-7.92v-7.92m0-7.9v-7.93m0-7.9v-7.92m0-7.92v-7.92m0-7.9v-7.93m0-7.9v-7.92m0-7.92v-7.92m0-7.9v-7.93m0-7.9v-7.92m0-7.92v-7.92m0-7.9v-7.93m0-7.9v-7.92m0-7.92V320h4" stroke="#147eba" stroke-width="2" fill="none"/><use xlink:href="#j" transform="matrix(1,0,0,1,360,340) translate(166.325 14.4)"/><use xlink:href="#k" transform="matrix(1,0,0,1,360,340) translate(255.725 14.4)"/><use xlink:href="#e" transform="matrix(1,0,0,1,360,340) translate(301.675 14.4)"/><path d="M1100 320h480v760h-480z" fill="#fff" fill-opacity="0"/><path d="M1112 320h8m8 0h8m8 0h8m8 0h8m8 0h8m8 0h8m8 0h8m8 0h8m8 0h8m8 0h8m8 0h8m8 0h8m8 0h8m8 0h8m8 0h8m8 0h8m8 0h8m8 0h8m8 0h8m8 0h8m8 0h8m8 0h8m8 0h8m8 0h8m8 0h8m8 0h8m8 0h8m8 0h8m8 0h8m8 0h4v3.96m0 7.92v7.9m0 7.93v7.92m0 7.92v7.92m0 7.9v7.93m0 7.9v7.92m0 7.92v7.92m0 7.9v7.93m0 7.9v7.92m0 7.92v7.92m0 7.9v7.93m0 7.9v7.92m0 7.92v7.92m0 7.9v7.93m0 7.9v7.92m0 7.92v7.92m0 7.9v7.93m0 7.9v7.92m0 7.92v7.92m0 7.9v7.93m0 7.9v7.92m0 7.92v7.92m0 7.9v7.93m0 7.9v7.92m0 7.92v7.92m0 7.9v7.93m0 7.9v7.92m0 7.92v7.92m0 7.9v7.93m0 7.9v7.92m0 7.92v7.92m0 7.9v7.93m0 7.9v7.92m0 7.92v7.92m0 7.9v7.93m0 7.9v7.92m0 7.92v7.92m0 7.9v7.93m0 7.9v7.92m0 7.92v7.92m0 7.9v7.93m0 7.9v7.92m0 7.92v7.92m0 7.9v7.93m0 7.9v7.92m0 7.92v7.92m0 7.9v7.93m0 7.9v7.92m0 7.92v3.96h-4m-8 0h-8m-8 0h-8m-8 0h-8m-8 0h-8m-8 0h-8m-8 0h-8m-8 0h-8m-8 0h-8m-8 0h-8m-8 0h-8m-8 0h-8m-8 0h-8m-8 0h-8m-8 0h-8m-8 0h-8m-8 0h-8m-8 0h-8m-8 0h-8m-8 0h-8m-8 0h-8m-8 0h-8m-8 0h-8m-8 0h-8m-8 0h-8m-8 0h-8m-8 0h-8m-8 0h-8m-8 0h-8m-8 0h-8m-8 0h-4v-3.96m0-7.9v-7.93m0-7.9v-7.92m0-7.92v-7.92m0-7.9v-7.93m0-7.9v-7.92m0-7.92v-7.92m0-7.9v-7.93m0-7.9v-7.92m0-7.92v-7.92m0-7.9v-7.93m0-7.9v-7.92m0-7.92v-7.92m0-7.9v-7.93m0-7.9v-7.92m0-7.92v-7.92m0-7.9v-7.93m0-7.9v-7.92m0-7.92v-7.92m0-7.9v-7.93m0-7.9v-7.92m0-7.92v-7.92m0-7.9v-7.93m0-7.9v-7.92m0-7.92v-7.92m0-7.9v-7.93m0-7.9v-7.92m0-7.92v-7.92m0-7.9v-7.93m0-7.9v-7.92m0-7.92v-7.92m0-7.9v-7.93m0-7.9v-7.92m0-7.92v-7.92m0-7.9v-7.93m0-7.9v-7.92m0-7.92v-7.92m0-7.9v-7.93m0-7.9v-7.92m0-7.92v-7.92m0-7.9v-7.93m0-7.9v-7.92m0-7.92v-7.92m0-7.9v-7.93m0-7.9v-7.92m0-7.92v-7.92m0-7.9v-7.93m0-7.9v-7.92m0-7.92V320h4" stroke="#147eba" stroke-width="2" fill="none"/><use xlink:href="#j" transform="matrix(1,0,0,1,1100,340) translate(166.325 14.4)"/><use xlink:href="#k" transform="matrix(1,0,0,1,1100,340) translate(255.725 14.4)"/><use xlink:href="#f" transform="matrix(1,0,0,1,1100,340) translate(301.675 14.4)"/><path d="M610.58 948.48v-14.66h-5.4v-3.1h14.64v3.1h-5.4v14.66zM628.22 938.13c1.5 0 2.75.5 3.86 1.47.98.94 1.46 2.14 1.4 3.5.03 1.1-.23 2.07-.83 3-.62.94-1.38 1.6-2.4 2.03-1.24.54-2.38.76-3.7.74-1.77-.02-3.28-.35-4.88-1.05v-2.8c1.6.58 3 .87 4.7.97.95.04 1.75-.18 2.5-.72.62-.55.92-1.25.86-2.07.06-.7-.23-1.33-.78-1.77-.78-.45-1.56-.63-2.47-.56h-1.13l-1.25.1v-2.37l4.6-5h-6.8v-2.87h10.82v2.8z" stroke="#fff" stroke-opacity="0" fill="#d86613"/><path d="M652.18 972.18h-64.36v-64.36h64.36zm-61.02-3.34h57.68v-57.68h-57.68z" stroke="#fff" stroke-opacity="0" fill="#d86613"/><path d="M597.02 900h3.33v9.48h-3.33V900zM607.47 900h3.33v9.48h-3.33V900zM617.93 900h3.34v9.48h-3.34V900zM628.4 900h3.33v9.48h-3.33V900zM638.87 900h3.33v9.48h-3.33V900zM597.02 970.52h3.33V980h-3.33v-9.48zM607.47 970.52h3.33V980h-3.33v-9.48zM617.93 970.52h3.34V980h-3.34v-9.48zM628.4 970.52h3.33V980h-3.33v-9.48zM638.87 970.52h3.33V980h-3.33v-9.48zM650.52 917.42H660v3.33h-9.48v-3.33zM650.52 927.87H660v3.33h-9.48v-3.33zM650.52 938.33H660v3.34h-9.48v-3.34zM650.52 948.8H660v3.33h-9.48v-3.33zM650.52 959.25H660v3.33h-9.48v-3.33zM580 917.42h9.48v3.33H580v-3.33zM580 927.87h9.48v3.33H580v-3.33zM580 938.33h9.48v3.34H580v-3.34zM580 948.8h9.48v3.33H580v-3.33zM580 959.25h9.48v3.33H580v-3.33z" stroke="#fff" stroke-opacity="0" fill="#d86613"/><use xlink:href="#l" transform="matrix(1,0,0,1,550,989) translate(25.049999999999997 14.4)"/><use xlink:href="#m" transform="matrix(1,0,0,1,550,989) translate(62.05 14.4)"/><path d="M710.58 948.48v-14.66h-5.4v-3.1h14.64v3.1h-5.4v14.66zM728.22 938.13c1.5 0 2.75.5 3.86 1.47.98.94 1.46 2.14 1.4 3.5.03 1.1-.23 2.07-.83 3-.62.94-1.38 1.6-2.4 2.03-1.24.54-2.38.76-3.7.74-1.77-.02-3.28-.35-4.88-1.05v-2.8c1.6.58 3 .87 4.7.97.95.04 1.75-.18 2.5-.72.62-.55.92-1.25.86-2.07.06-.7-.23-1.33-.78-1.77-.78-.45-1.56-.63-2.47-.56h-1.13l-1.25.1v-2.37l4.6-5h-6.8v-2.87h10.82v2.8z" stroke="#fff" stroke-opacity="0" fill="#d86613"/><path d="M752.18 972.18h-64.36v-64.36h64.36zm-61.02-3.34h57.68v-57.68h-57.68z" stroke="#fff" stroke-opacity="0" fill="#d86613"/><path d="M697.02 900h3.33v9.48h-3.33V900zM707.47 900h3.33v9.48h-3.33V900zM717.93 900h3.34v9.48h-3.34V900zM728.4 900h3.33v9.48h-3.33V900zM738.87 900h3.33v9.48h-3.33V900zM697.02 970.52h3.33V980h-3.33v-9.48zM707.47 970.52h3.33V980h-3.33v-9.48zM717.93 970.52h3.34V980h-3.34v-9.48zM728.4 970.52h3.33V980h-3.33v-9.48zM738.87 970.52h3.33V980h-3.33v-9.48zM750.52 917.42H760v3.33h-9.48v-3.33zM750.52 927.87H760v3.33h-9.48v-3.33zM750.52 938.33H760v3.34h-9.48v-3.34zM750.52 948.8H760v3.33h-9.48v-3.33zM750.52 959.25H760v3.33h-9.48v-3.33zM680 917.42h9.48v3.33H680v-3.33zM680 927.87h9.48v3.33H680v-3.33zM680 938.33h9.48v3.34H680v-3.34zM680 948.8h9.48v3.33H680v-3.33zM680 959.25h9.48v3.33H680v-3.33z" stroke="#fff" stroke-opacity="0" fill="#d86613"/><use xlink:href="#l" transform="matrix(1,0,0,1,650,989) translate(25.049999999999997 14.4)"/><use xlink:href="#m" transform="matrix(1,0,0,1,650,989) translate(62.05 14.4)"/><path d="M1175.58 948.48v-14.66h-5.4v-3.1h14.64v3.1h-5.4v14.66zM1193.22 938.13c1.5 0 2.75.5 3.86 1.47.98.94 1.46 2.14 1.4 3.5.03 1.1-.23 2.07-.83 3-.62.94-1.38 1.6-2.4 2.03-1.24.54-2.38.76-3.7.74-1.77-.02-3.28-.35-4.88-1.05v-2.8c1.6.58 3 .87 4.7.97.95.04 1.75-.18 2.5-.72.62-.55.92-1.25.86-2.07.06-.7-.23-1.33-.78-1.77-.78-.45-1.56-.63-2.47-.56h-1.13l-1.25.1v-2.37l4.6-5h-6.8v-2.87h10.82v2.8z" stroke="#fff" stroke-opacity="0" fill="#d86613"/><path d="M1217.18 972.18h-64.36v-64.36h64.36zm-61.02-3.34h57.68v-57.68h-57.68z" stroke="#fff" stroke-opacity="0" fill="#d86613"/><path d="M1162.02 900h3.33v9.48h-3.33V900zM1172.47 900h3.33v9.48h-3.33V900zM1182.93 900h3.34v9.48h-3.34V900zM1193.4 900h3.33v9.48h-3.33V900zM1203.87 900h3.33v9.48h-3.33V900zM1162.02 970.52h3.33V980h-3.33v-9.48zM1172.47 970.52h3.33V980h-3.33v-9.48zM1182.93 970.52h3.34V980h-3.34v-9.48zM1193.4 970.52h3.33V980h-3.33v-9.48zM1203.87 970.52h3.33V980h-3.33v-9.48zM1215.52 917.42h9.48v3.33h-9.48v-3.33zM1215.52 927.87h9.48v3.33h-9.48v-3.33zM1215.52 938.33h9.48v3.34h-9.48v-3.34zM1215.52 948.8h9.48v3.33h-9.48v-3.33zM1215.52 959.25h9.48v3.33h-9.48v-3.33zM1145 917.42h9.48v3.33H1145v-3.33zM1145 927.87h9.48v3.33H1145v-3.33zM1145 938.33h9.48v3.34H1145v-3.34zM1145 948.8h9.48v3.33H1145v-3.33zM1145 959.25h9.48v3.33H1145v-3.33z" stroke="#fff" stroke-opacity="0" fill="#d86613"/><use xlink:href="#l" transform="matrix(1,0,0,1,1115,989) translate(25.049999999999997 14.4)"/><use xlink:href="#m" transform="matrix(1,0,0,1,1115,989) translate(62.05 14.4)"/><path d="M1290.58 948.48v-14.66h-5.4v-3.1h14.64v3.1h-5.4v14.66zM1308.22 938.13c1.5 0 2.75.5 3.86 1.47.98.94 1.46 2.14 1.4 3.5.03 1.1-.23 2.07-.83 3-.62.94-1.38 1.6-2.4 2.03-1.24.54-2.38.76-3.7.74-1.77-.02-3.28-.35-4.88-1.05v-2.8c1.6.58 3 .87 4.7.97.95.04 1.75-.18 2.5-.72.62-.55.92-1.25.86-2.07.06-.7-.23-1.33-.78-1.77-.78-.45-1.56-.63-2.47-.56h-1.13l-1.25.1v-2.37l4.6-5h-6.8v-2.87h10.82v2.8z" stroke="#fff" stroke-opacity="0" fill="#d86613"/><path d="M1332.18 972.18h-64.36v-64.36h64.36zm-61.02-3.34h57.68v-57.68h-57.68z" stroke="#fff" stroke-opacity="0" fill="#d86613"/><path d="M1277.02 900h3.33v9.48h-3.33V900zM1287.47 900h3.33v9.48h-3.33V900zM1297.93 900h3.34v9.48h-3.34V900zM1308.4 900h3.33v9.48h-3.33V900zM1318.87 900h3.33v9.48h-3.33V900zM1277.02 970.52h3.33V980h-3.33v-9.48zM1287.47 970.52h3.33V980h-3.33v-9.48zM1297.93 970.52h3.34V980h-3.34v-9.48zM1308.4 970.52h3.33V980h-3.33v-9.48zM1318.87 970.52h3.33V980h-3.33v-9.48zM1330.52 917.42h9.48v3.33h-9.48v-3.33zM1330.52 927.87h9.48v3.33h-9.48v-3.33zM1330.52 938.33h9.48v3.34h-9.48v-3.34zM1330.52 948.8h9.48v3.33h-9.48v-3.33zM1330.52 959.25h9.48v3.33h-9.48v-3.33zM1260 917.42h9.48v3.33H1260v-3.33zM1260 927.87h9.48v3.33H1260v-3.33zM1260 938.33h9.48v3.34H1260v-3.34zM1260 948.8h9.48v3.33H1260v-3.33zM1260 959.25h9.48v3.33H1260v-3.33z" stroke="#fff" stroke-opacity="0" fill="#d86613"/><use xlink:href="#l" transform="matrix(1,0,0,1,1230,989) translate(25.049999999999997 14.4)"/><use xlink:href="#m" transform="matrix(1,0,0,1,1230,989) translate(62.05 14.4)"/><path d="M1398 1125.42l57.98 8.62v5.1c0 7.53-25.98 13.63-58 13.63-32 0-57.98-6.1-57.98-13.64v-5.53z" fill="#8c3123"/><path d="M1398.02 1162.13c24.2 0 44.93-3.54 53.58-8.5l2.88-4.78 1.15-4.4v5.45l-19 81c0 5.08-17.3 9.1-38.6 9.1-21.33 0-38.6-4.02-38.6-9.1l-19.02-81v-5.35l4.38 9.27c8.76 4.87 29.27 8.3 53.24 8.3z" fill="#8c3123"/><path d="M1398 1120c32 0 58 6.12 58 13.62 0 7.5-26 13.57-58 13.57s-58-6.02-58-13.58c0-7.56 26-13.62 58-13.62z" fill="#e05243"/><path d="M1398 1156.6c29.84 0 54.4-5.2 57.62-12.06l-19.02 81c0 5.05-17.3 9.1-38.6 9.1-21.33 0-38.6-4.05-38.6-9.1l-19.03-81c3.23 6.85 27.78 12.07 57.62 12.07z" fill="#e05243"/><path d="M1384.35 1164.38h25.1v24.96h-25.1v-24.96zM1376.75 1198.17c6.84 0 12.4 5.5 12.4 12.3 0 6.8-5.56 12.3-12.4 12.3-6.83 0-12.38-5.5-12.38-12.3 0-6.8 5.55-12.3 12.38-12.3zM1428.8 1222.2H1404l12.4-22.94 12.4 22.94z" fill="#fff"/><use xlink:href="#n" transform="matrix(1,0,0,1,1340,1240) translate(23.700000000000003 14.4)"/><use xlink:href="#o" transform="matrix(1,0,0,1,1340,1240) translate(30.5 36)"/><path d="M430 380h350v300H430z" fill="#248814" fill-opacity=".13"/><path d="M430 380h56v56h-56v-56z" stroke="#fff" stroke-opacity="0" fill="#248814"/><path d="M473.38 402.18c-.15-.17-.34-.25-.56-.25h-5.15v-5.58c-.03-2.54-.96-4.7-2.84-6.4-1.9-1.84-4.15-2.75-6.77-2.75-2.65 0-4.9.83-6.8 2.62-1.9 1.7-2.87 3.87-2.9 6.4v5.66h-5.15c-.24 0-.43.1-.58.25-.16.17-.22.34-.22.6V428c0 .43.34.8.8.8h29.6c.46 0 .8-.37.8-.8v-25.28c0-.2-.06-.38-.22-.54zm-23.46-5.9c.03-2.13.8-3.88 2.37-5.3 1.6-1.5 3.52-2.2 5.73-2.2 2.22 0 4.12.75 5.7 2.25 1.54 1.4 2.32 3.2 2.32 5.32v5.58H449.9zm22.1 30.94h-28.03v-23.7h28z" stroke="#fff" stroke-opacity="0" fill="#fff"/><path d="M457.2 417.3v6.25h1.6v-6.23c2.13-.4 3.62-2.2 3.63-4.35 0-2.43-1.97-4.4-4.4-4.43-2.2-.03-4.06 1.5-4.44 3.68-.42 2.4 1.2 4.68 3.6 5.1zm.82-7.15c.78 0 1.44.27 2 .82.54.56.82 1.22.8 2 .03 1.55-1.2 2.8-2.74 2.82h-.06c-1.56.1-2.92-1.06-3.04-2.62-.12-1.56 1.05-2.93 2.6-3.03.16-.02.28-.02.44 0z" stroke="#fff" stroke-opacity="0" fill="#fff"/><use xlink:href="#p" transform="matrix(1,0,0,1,501,400) translate(0 14.4)"/><use xlink:href="#q" transform="matrix(1,0,0,1,501,400) translate(53.900000000000006 14.4)"/><use xlink:href="#r" transform="matrix(1,0,0,1,501,400) translate(115.9 14.4)"/><path d="M1140 380h380v300h-380z" fill="#248814" fill-opacity=".13"/><path d="M1140 380h56v56h-56v-56z" stroke="#fff" stroke-opacity="0" fill="#248814"/><path d="M1183.38 402.18c-.15-.17-.34-.25-.56-.25h-5.15v-5.58c-.03-2.54-.96-4.7-2.84-6.4-1.9-1.84-4.15-2.75-6.77-2.75-2.65 0-4.9.83-6.8 2.62-1.9 1.7-2.87 3.87-2.9 6.4v5.66h-5.15c-.24 0-.43.1-.58.25-.16.17-.22.34-.22.6V428c0 .43.34.8.8.8h29.6c.46 0 .8-.37.8-.8v-25.28c0-.2-.06-.38-.22-.54zm-23.46-5.9c.03-2.13.8-3.88 2.37-5.3 1.6-1.5 3.52-2.2 5.73-2.2 2.22 0 4.12.75 5.7 2.25 1.54 1.4 2.32 3.2 2.32 5.32v5.58h-16.16zm22.1 30.94h-28.03v-23.7h28z" stroke="#fff" stroke-opacity="0" fill="#fff"/><path d="M1167.2 417.3v6.25h1.6v-6.23c2.13-.4 3.62-2.2 3.63-4.35 0-2.43-1.97-4.4-4.4-4.43-2.2-.03-4.06 1.5-4.44 3.68-.42 2.4 1.2 4.68 3.6 5.1zm.82-7.15c.78 0 1.44.27 2 .82.54.56.82 1.22.8 2 .03 1.55-1.2 2.8-2.74 2.82h-.06c-1.56.1-2.92-1.06-3.04-2.62-.12-1.56 1.05-2.93 2.6-3.03.16-.02.28-.02.44 0z" stroke="#fff" stroke-opacity="0" fill="#fff"/><use xlink:href="#p" transform="matrix(1,0,0,1,1211,400) translate(0 14.4)"/><use xlink:href="#q" transform="matrix(1,0,0,1,1211,400) translate(53.900000000000006 14.4)"/><use xlink:href="#s" transform="matrix(1,0,0,1,1211,400) translate(115.9 14.4)"/><path d="M1015 581.57c0 21.2-17.92 38.42-40 38.42s-40-17.22-40-38.43c0-21.2 17.92-38.42 40-38.42s40 17.2 40 38.42z" fill="#9d5025"/><path d="M1015 578.42c0 21.2-17.92 38.42-40 38.42s-40-17.2-40-38.42c0-21.2 17.92-38.42 40-38.42s40 17.2 40 38.42z" fill="#f58536"/><path d="M986.66 547.38v13.96h-23.34v-13.96h23.34zM1004.72 587.76v11.36H992.9v-11.36h11.82zM989.77 587.76v11.36h-11.83v-11.36h11.83zM971.56 587.76v11.36h-11.82v-11.36h11.82zM956.6 587.76v11.36h-11.82v-11.36h11.82z" fill="#fff"/><path d="M949.62 577.93h2.13v11.14h-2.13v-11.14z" fill="#fff"/><path d="M949.62 577.93h17.1v2.04h-17.1v-2.04z" fill="#fff"/><path d="M964.58 577.93h2.13v11.14h-2.12v-11.14zM982.8 577.93h2.12v11.14h-2.13v-11.14z" fill="#fff"/><path d="M982.8 577.93h17.08v2.04h-17.1v-2.04z" fill="#fff"/><path d="M997.75 577.93h2.13v11.14h-2.13v-11.14zM957.12 569.97h2.13v8.97h-2.13v-8.97zM973.93 559.28h2.13v10.86h-2.13v-10.86z" fill="#fff"/><path d="M957.12 569.1h35.32v2.05h-35.32v-2.04z" fill="#fff"/><path d="M990.3 569.97h2.14v8.97h-2.13v-8.97z" fill="#fff"/><path d="M560 591.6h820V1020H560z" fill="#fff" fill-opacity="0"/><path d="M572.06 591.6h8.04m8.04 0h8.04m8.04 0h8.03m8.04 0h8.03m8.04 0h8.04m8.05 0h8.04m8.03 0h8.04m8.04 0h8.05m8.04 0h8.03m8.03 0h8.04m8.04 0h8.04m8.04 0h8.04m8.04 0h8.04m8.04 0h8.04m8.04 0h8.04m8.04 0h8.03m8.04 0h8.05m8.04 0h8.03m8.04 0h8.04m8.05 0h8.04m8.03 0h8.04m8.04 0h8.05m8.03 0h8.04m8.04 0h8.04m8.04 0h8.04m8.04 0h8.04m8.04 0h8.04m8.04 0h8.04m8.03 0h8.04m8.03 0h8.04m8.04 0h8.05m8.04 0h8.03m8.04 0h8.04m8.05 0h8.04m8.03 0h8.03m8.04 0h8.04m8.04 0h8.04m8.04 0h8.04m8.04 0h8.04m8.04 0h8.04m8.04 0h8.04m8.03 0h8.04m8.05 0h8.04m8.03 0h8.04m8.04 0h8.05m8.04 0h8.03m8.04 0h8.04m8.05 0h8.03m8.04 0h8.04m8.04 0h8.04m8.04 0h4.02v3.97m0 7.93v7.93m0 7.94v7.93m0 7.93v7.94m0 7.93v7.93m0 7.94v7.93m0 7.93v7.94m0 7.93v7.93m0 7.94v7.93m0 7.93v7.94m0 7.93v7.93m0 7.94v7.93m0 7.93v7.94m0 7.93v7.93m0 7.94v7.93m0 7.93v7.94m0 7.93v7.93m0 7.94v7.93m0 7.93v7.94m0 7.93v7.93m0 7.94v7.93m0 7.93v7.94m0 7.93v7.93m0 7.94v7.93m0 7.93v7.94m0 7.93v7.93m0 7.94v7.93m0 7.93v3.97h-4.02m-8.04 0h-8.04m-8.04 0h-8.04m-8.04 0h-8.03m-8.04 0h-8.03m-8.04 0h-8.04m-8.05 0h-8.04m-8.03 0h-8.04m-8.04 0h-8.05m-8.04 0h-8.03m-8.03 0h-8.04m-8.04 0h-8.04m-8.04 0h-8.04m-8.04 0h-8.04m-8.04 0h-8.04m-8.04 0h-8.04m-8.04 0h-8.03m-8.04 0h-8.05m-8.04 0h-8.03m-8.04 0h-8.04m-8.05 0h-8.04m-8.03 0h-8.04m-8.04 0h-8.05m-8.03 0h-8.04m-8.04 0h-8.04m-8.04 0h-8.04m-8.04 0h-8.04m-8.04 0h-8.04m-8.04 0h-8.04m-8.03 0h-8.04m-8.03 0h-8.04m-8.04 0h-8.05m-8.04 0h-8.03m-8.04 0h-8.04m-8.05 0h-8.04m-8.03 0h-8.03m-8.04 0h-8.04m-8.04 0h-8.04m-8.04 0H765m-8.04 0h-8.04m-8.04 0h-8.04m-8.04 0h-8.04m-8.03 0h-8.04m-8.05 0h-8.04m-8.03 0h-8.04m-8.04 0h-8.05m-8.04 0h-8.03m-8.04 0h-8.04m-8.05 0h-8.03m-8.04 0h-8.04m-8.04 0h-8.04m-8.04 0H560v-3.97m0-7.93v-7.93m0-7.94v-7.93m0-7.93v-7.94m0-7.93v-7.93m0-7.94v-7.93m0-7.93v-7.94m0-7.93v-7.93m0-7.94v-7.93m0-7.93v-7.94m0-7.93v-7.93m0-7.94v-7.93m0-7.93v-7.94m0-7.93v-7.93m0-7.94v-7.93m0-7.93v-7.94m0-7.93v-7.93m0-7.94v-7.93m0-7.93v-7.94m0-7.93v-7.93m0-7.94v-7.93m0-7.93v-7.94m0-7.93v-7.93m0-7.94v-7.93m0-7.93v-7.94m0-7.93v-7.93m0-7.94v-7.93m0-7.93v-3.97h4.02" stroke="#5a6c86" stroke-width="2" fill="none"/><path d="M855 611.6h240v60H855z" stroke="#000" stroke-opacity="0" stroke-width="2" fill="#fff" fill-opacity="0"/><use xlink:href="#t" transform="matrix(1,0,0,1,860,616.5999999999999) translate(98 30.025)"/><path d="M520 830h900v200H520z" fill="#fff" fill-opacity="0"/><path d="M527 830h6m4 0h6m4 0h6m4 0h6m4 0h6m4 0h6m4 0h6m4 0h6m4 0h6m4 0h6m4 0h6m4 0h6m4 0h6m4 0h6m4 0h6m4 0h6m4 0h6m4 0h6m4 0h6m4 0h6m4 0h6m4 0h6m4 0h6m4 0h6m4 0h6m4 0h6m4 0h6m4 0h6m4 0h6m4 0h6m4 0h6m4 0h6m4 0h6m4 0h6m4 0h6m4 0h6m4 0h6m4 0h6m4 0h6m4 0h6m4 0h6m4 0h6m4 0h6m4 0h6m4 0h6m4 0h6m4 0h6m4 0h6m4 0h6m4 0h6m4 0h6m4 0h6m4 0h6m4 0h6m4 0h6m4 0h6m4 0h6m4 0h6m4 0h6m4 0h6m4 0h6m4 0h6m4 0h6m4 0h6m4 0h6m4 0h6m4 0h6m4 0h6m4 0h6m4 0h6m4 0h6m4 0h6m4 0h6m4 0h6m4 0h6m4 0h6m4 0h6m4 0h6m4 0h6m4 0h6m4 0h6m4 0h6m4 0h6m4 0h6m4 0h6m4 0h6m4 0h6m4 0h6m4 0h6m4 0h3v3m0 4v6m0 4v6m0 4v6m0 4v6m0 4v6m0 4v6m0 4v6m0 4v6m0 4v6m0 4v6m0 4v6m0 4v6m0 4v6m0 4v6m0 4v6m0 4v6m0 4v6m0 4v6m0 4v6m0 4v3h-3m-4 0h-6m-4 0h-6m-4 0h-6m-4 0h-6m-4 0h-6m-4 0h-6m-4 0h-6m-4 0h-6m-4 0h-6m-4 0h-6m-4 0h-6m-4 0h-6m-4 0h-6m-4 0h-6m-4 0h-6m-4 0h-6m-4 0h-6m-4 0h-6m-4 0h-6m-4 0h-6m-4 0h-6m-4 0h-6m-4 0h-6m-4 0h-6m-4 0h-6m-4 0h-6m-4 0h-6m-4 0h-6m-4 0h-6m-4 0h-6m-4 0h-6m-4 0h-6m-4 0h-6m-4 0h-6m-4 0h-6m-4 0h-6m-4 0h-6m-4 0h-6m-4 0h-6m-4 0h-6m-4 0h-6m-4 0h-6m-4 0h-6m-4 0h-6m-4 0h-6m-4 0h-6m-4 0h-6m-4 0h-6m-4 0h-6m-4 0h-6m-4 0h-6m-4 0h-6m-4 0h-6m-4 0h-6m-4 0h-6m-4 0h-6m-4 0h-6m-4 0h-6m-4 0h-6m-4 0h-6m-4 0h-6m-4 0h-6m-4 0h-6m-4 0h-6m-4 0h-6m-4 0h-6m-4 0h-6m-4 0h-6m-4 0h-6m-4 0h-6m-4 0h-6m-4 0h-6m-4 0h-6m-4 0h-6m-4 0h-6m-4 0h-6m-4 0h-6m-4 0h-6m-4 0h-6m-4 0h-6m-4 0h-6m-4 0h-6m-4 0h-6m-4 0h-6m-4 0h-6m-4 0h-6m-4 0h-6m-4 0h-6m-4 0h-6m-4 0h-3v-3m0-4v-6m0-4v-6m0-4v-6m0-4v-6m0-4v-6m0-4v-6m0-4v-6m0-4v-6m0-4v-6m0-4v-6m0-4v-6m0-4v-6m0-4v-6m0-4v-6m0-4v-6m0-4v-6m0-4v-6m0-4v-6m0-4v-6m0-4v-3h3" stroke="#d86613" stroke-width="2" fill="none"/><path d="M942 830h56v56h-56v-56z" stroke="#fff" stroke-opacity="0" fill="#d86613"/><path d="M961.68 853.73l-1.14 1.13 2.33 2.34H950v1.6h12.87l-2.33 2.34 1.14 1.13 4.27-4.27-4.27-4.27zM990 857.2h-12.87l2.33-2.34-1.14-1.13-4.27 4.27 4.27 4.27 1.14-1.13-2.33-2.34H990v-1.6zM969.2 840.63v12.87h1.6v-12.87l2.34 2.33 1.13-1.13-4.27-4.28-4.27 4.28 1.13 1.13 2.34-2.33zM970.8 875.37V862.5h-1.6v12.87l-2.34-2.33-1.13 1.13 4.27 4.28 4.27-4.28-1.13-1.13-2.34 2.33z" stroke="#fff" stroke-opacity="0" fill="#fff"/><use xlink:href="#u" transform="matrix(1,0,0,1,520,901) translate(399.55 14.4)"/><use xlink:href="#v" transform="matrix(1,0,0,1,520,901) translate(441.55 14.4)"/><path d="M640 481.57c0 21.2-17.92 38.42-40 38.42s-40-17.22-40-38.43c0-21.2 17.92-38.42 40-38.42s40 17.2 40 38.42z" fill="#9d5025"/><path d="M640 478.42c0 21.2-17.92 38.42-40 38.42s-40-17.2-40-38.42c0-21.2 17.92-38.42 40-38.42s40 17.2 40 38.42z" fill="#f58536"/><path d="M610.82 460.58h4.22v35.66h-4.22v-35.66zM622.7 469.6l11.03 8.64-11.04 9V469.6z" fill="#fff"/><path d="M583.64 476.4l2.43 1.87-2.68 2.17h41.14v-4.04h-40.9zM583.4 462.6h31.64v-4.04h-31.4l2.4 1.88-2.65 2.17zM586.05 496.1l-2.66 2.17h31.64v-4.05h-31.4l2.4 1.88zM574.6 471.36l8.83 6.9-8.83 7.2v-14.1zM574.6 453.53l8.83 6.9-8.83 7.2v-14.1zM574.6 489.2l8.83 6.9-8.83 7.2v-14.1z" fill="#fff"/><use xlink:href="#w" transform="matrix(1,0,0,1,560,520) translate(1.9249999999999972 14.4)"/><use xlink:href="#x" transform="matrix(1,0,0,1,560,520) translate(43.875 14.4)"/><use xlink:href="#y" transform="matrix(1,0,0,1,560,520) translate(6.524999999999999 36)"/><path d="M1380 481.57c0 21.2-17.92 38.42-40 38.42s-40-17.22-40-38.43c0-21.2 17.92-38.42 40-38.42s40 17.2 40 38.42z" fill="#9d5025"/><path d="M1380 478.42c0 21.2-17.92 38.42-40 38.42s-40-17.2-40-38.42c0-21.2 17.92-38.42 40-38.42s40 17.2 40 38.42z" fill="#f58536"/><path d="M1350.82 460.58h4.22v35.66h-4.22v-35.66zM1362.7 469.6l11.03 8.64-11.04 9V469.6z" fill="#fff"/><path d="M1323.64 476.4l2.43 1.87-2.68 2.17h41.14v-4.04h-40.9zM1323.4 462.6h31.64v-4.04h-31.4l2.4 1.88-2.65 2.17zM1326.05 496.1l-2.66 2.17h31.64v-4.05h-31.4l2.4 1.88zM1314.6 471.36l8.83 6.9-8.83 7.2v-14.1zM1314.6 453.53l8.83 6.9-8.83 7.2v-14.1zM1314.6 489.2l8.83 6.9-8.83 7.2v-14.1z" fill="#fff"/><use xlink:href="#w" transform="matrix(1,0,0,1,1300,520) translate(1.9249999999999972 14.4)"/><use xlink:href="#x" transform="matrix(1,0,0,1,1300,520) translate(43.875 14.4)"/><use xlink:href="#y" transform="matrix(1,0,0,1,1300,520) translate(6.524999999999999 36)"/><path d="M1027.5 222.36c0 31.8-25.76 57.63-57.5 57.63s-57.5-25.83-57.5-57.64c0-31.8 25.76-57.63 57.5-57.63s57.5 25.82 57.5 57.63z" fill="#9d5025"/><path d="M912.5 217.62h115v4.73h-115v-4.73z" fill="#9d5025"/><path d="M1027.5 217.63c0 31.8-25.76 57.63-57.5 57.63s-57.5-25.82-57.5-57.63c0-31.8 25.76-57.63 57.5-57.63s57.5 25.82 57.5 57.63z" fill="#f58536"/><path d="M926.64 223.36v-1.5c.44-7 4.34-12.8 10.66-15.86.6-12.86 11.52-22.8 24.43-22.12 8.05.38 14.8 4.5 18.88 11.47 6.6-2.77 14.13.28 16.9 6.82.43.95.7 1.72.86 2.67 8.67 1.72 14.9 10.03 14.9 17.02v1.4c0 8.53-8.83 16-18.88 16h-48.94c-9.96.07-18.8-7.42-18.8-15.9z" fill="#fff"/><path d="M981.77 201.48l-3.67 2.54-1.87-4.06c-2.85-6.34-8.7-10.23-15.66-10.27h-.07c-9.52 0-17.3 7.77-17.3 17.38v3.23l-2.7.8c-4.57 1.83-7.57 5.85-7.94 10.8v1.4c0 4.66 5.7 10.08 12.96 10.08h49c7.33 0 12.95-5.42 12.95-10.1v-1.4c0-4.7-5.25-10.87-11.3-11.35l-3.3-.26-.24-3.28c0-1.4-.44-2.54-1.2-3.68-2.17-3.2-6.5-3.98-9.66-1.8z" fill="#f58536"/><g><use xlink:href="#z" transform="matrix(1,0,0,1,912.5,280) translate(27.025 14.4)"/><use xlink:href="#y" transform="matrix(1,0,0,1,912.5,280) translate(24.025 36)"/></g><path d="M970 281v240.87" stroke="#000" stroke-width="2" fill="none"/><path d="M970 280h.53l.47-.04V281h-2v-1.06z"/><path d="M970 537.14l-4.64-14.27h9.28z" stroke="#000" stroke-width="2"/><path d="M975 672.6v137.9" stroke="#000" stroke-width="2" fill="none"/><path d="M976 672.63h-2v-1.03h2z"/><path d="M975 825.76l-4.64-14.26h9.28z" stroke="#000" stroke-width="2"/><path d="M952.44 41.78H931.7c-.95 0-1.7-.76-1.7-1.7v-2.54c0-9.48 6.23-17.44 15.5-19.67.4-.1.8-.04 1.2.17 2.73 1.46 5.68 1.46 8.4 0 .4-.2.8-.26 1.22-.17 2.43.6 4.43 1.47 6.5 2.85l-1.9 2.83c-1.55-1-3-1.68-4.8-2.15-3.45 1.58-7 1.58-10.43 0-7.4 2.06-12.3 8.5-12.3 16.14v.84h19.04z" stroke="#fff" stroke-opacity="0" fill="#232f3e"/><path d="M950.88 22.46c-6.17 0-11.17-5-11.17-11.14 0-6.16 5-11.15 11.18-11.15 6.16-.07 11.2 4.88 11.26 11 .04 4.27-2.1 7.9-5.86 9.9-1.72.97-3.4 1.4-5.4 1.4zm0-18.9c-4.3 0-7.83 3.45-7.85 7.76 0 2.92 1.48 5.4 4.06 6.8 2.43 1.3 5.12 1.3 7.57 0 2.6-1.4 4.1-3.95 4.06-6.9-.05-4.27-3.57-7.68-7.85-7.64zM1008.32 41.78h-20.75v-3.4h19.04v-.83c0-7.67-4.9-14.1-12.25-16.17-3.45 1.6-7 1.6-10.46 0-1.82.5-3.3 1.2-4.84 2.28l-1.94-2.8c2.07-1.44 4.08-2.35 6.5-2.97.44-.1.86-.06 1.26.16 2.7 1.46 5.7 1.46 8.42 0 .4-.22.8-.27 1.2-.17 9.25 2.22 15.5 10.16 15.5 19.65v2.53c0 .94-.76 1.68-1.68 1.7z" stroke="#fff" stroke-opacity="0" fill="#232f3e"/><path d="M989.08 22.46c-6.2 0-11.23-5.05-11.23-11.25S982.9 0 989.13 0c6.2 0 11.23 5.05 11.23 11.25 0 4.23-2.14 7.82-5.85 9.84-1.75.94-3.44 1.36-5.42 1.36zm0-18.9c-4.3 0-7.8 3.45-7.83 7.76-.02 2.92 1.46 5.42 4.05 6.8 2.43 1.3 5.13 1.3 7.6 0 2.62-1.4 4.13-3.97 4.08-6.96-.1-4.26-3.62-7.68-7.9-7.6zM997.2 80h-54.46c-.92 0-1.67-.75-1.67-1.7v-3.6c-.06-13.1 8.6-24.1 21.32-27.18.46-.13.86-.06 1.27.13 4.04 2.18 8.5 2.18 12.6 0 .34-.2.75-.26 1.2-.13 12.78 3.06 21.45 14.06 21.4 27.18v3.6c0 .95-.76 1.7-1.68 1.7zm-52.72-3.38h50.97V74.7c0-11.27-7.28-20.74-18.2-23.66-4.8 2.3-9.83 2.3-14.62 0-10.93 2.92-18.15 12.4-18.15 23.66z" stroke="#fff" stroke-opacity="0" fill="#232f3e"/><path d="M970.02 52.64c-2.7 0-5-.58-7.4-1.86-7.4-4.07-10.13-13.34-6.1-20.77 4.1-7.4 13.38-10.12 20.83-6.08 7.42 4.07 10.15 13.34 6.1 20.77-1.47 2.68-3.4 4.6-6.1 6.08-2.36 1.28-4.66 1.86-7.33 1.86zm0-26.76c-4.44-.06-8.28 2.17-10.42 6.1-3.07 5.64-.98 12.74 4.7 15.83 3.67 1.97 7.7 1.97 11.4 0 3.95-2.13 6.22-5.95 6.16-10.42-.1-6.42-5.4-11.6-11.84-11.5z" stroke="#fff" stroke-opacity="0" fill="#232f3e"/><path d="M1008.78 41.78h-39.72c-.68 0-1.23-.54-1.23-1.23V37.9c-.04-9.53 6.3-17.56 15.56-19.8.33-.1.63-.06.92.08 2.95 1.6 6.2 1.6 9.2 0 .25-.14.54-.2.88-.1 9.32 2.24 15.64 10.27 15.6 19.83v2.65c0 .7-.55 1.23-1.22 1.23zm-38.46-2.47h37.2v-1.4c0-8.2-5.32-15.1-13.3-17.25-3.5 1.7-7.16 1.7-10.66 0-7.97 2.14-13.24 9.05-13.24 17.26z" stroke="#fff" stroke-opacity="0" stroke-width=".73" fill="#fff" fill-opacity="0"/><path d="M970.94 41.78h-39.72c-.67 0-1.22-.54-1.22-1.23V37.9c-.04-9.53 6.28-17.56 15.56-19.8.34-.1.63-.06.93.08 2.94 1.6 6.2 1.6 9.18 0 .25-.14.55-.2.88-.1 9.32 2.24 15.65 10.27 15.6 19.83v2.65c0 .7-.54 1.23-1.22 1.23zM932.5 39.3h37.18v-1.4c0-8.2-5.3-15.1-13.28-17.25-3.5 1.7-7.17 1.7-10.67 0-7.97 2.14-13.24 9.05-13.24 17.26z" stroke="#fff" stroke-opacity="0" stroke-width=".73" fill="#fff" fill-opacity="0"/><g><use xlink:href="#A" transform="matrix(1,0,0,1,900,89) translate(15.399999999999999 14.4)"/><use xlink:href="#B" transform="matrix(1,0,0,1,900,89) translate(60.699999999999996 14.4)"/><use xlink:href="#C" transform="matrix(1,0,0,1,900,89) translate(46.55 36)"/></g><path d="M970 81v60.5" stroke="#000" stroke-width="2" fill="none"/><path d="M971 81.03h-2V80h2z"/><path d="M970 156.76l-4.64-14.26h9.28z" stroke="#000" stroke-width="2"/><path d="M970 1032v158h361.3" stroke="#000" stroke-width="2" fill="none"/><path d="M971 1032.03h-2V1031h2z"/><path d="M1346.58 1190l-14.27 4.64v-9.28z" stroke="#000" stroke-width="2"/><defs><path fill="#232f3e" d="M205 0l-28-72H64L36 0H1l101-248h38L239 0h-34zm-38-99l-47-123c-12 45-31 82-46 123h93" id="D"/><path fill="#232f3e" d="M266 0h-40l-56-210L115 0H75L2-248h35L96-30l15-64 43-154h32l59 218 59-218h35" id="E"/><path fill="#232f3e" d="M185-189c-5-48-123-54-124 2 14 75 158 14 163 119 3 78-121 87-175 55-17-10-28-26-33-46l33-7c5 56 141 63 141-1 0-78-155-14-162-118-5-82 145-84 179-34 5 7 8 16 11 25" id="F"/><g id="a"><use transform="matrix(0.05,0,0,0.05,0,0)" xlink:href="#D"/><use transform="matrix(0.05,0,0,0.05,11.35,0)" xlink:href="#E"/><use transform="matrix(0.05,0,0,0.05,28.299999999999997,0)" xlink:href="#F"/></g><path fill="#232f3e" d="M212-179c-10-28-35-45-73-45-59 0-87 40-87 99 0 60 29 101 89 101 43 0 62-24 78-52l27 14C228-24 195 4 139 4 59 4 22-46 18-125c-6-104 99-153 187-111 19 9 31 26 39 46" id="G"/><path fill="#232f3e" d="M24 0v-261h32V0H24" id="H"/><path fill="#232f3e" d="M100-194c62-1 85 37 85 99 1 63-27 99-86 99S16-35 15-95c0-66 28-99 85-99zM99-20c44 1 53-31 53-75 0-43-8-75-51-75s-53 32-53 75 10 74 51 75" id="I"/><path fill="#232f3e" d="M84 4C-5 8 30-112 23-190h32v120c0 31 7 50 39 49 72-2 45-101 50-169h31l1 190h-30c-1-10 1-25-2-33-11 22-28 36-60 37" id="J"/><path fill="#232f3e" d="M85-194c31 0 48 13 60 33l-1-100h32l1 261h-30c-2-10 0-23-3-31C134-8 116 4 85 4 32 4 16-35 15-94c0-66 23-100 70-100zm9 24c-40 0-46 34-46 75 0 40 6 74 45 74 42 0 51-32 51-76 0-42-9-74-50-73" id="K"/><g id="b"><use transform="matrix(0.05,0,0,0.05,0,0)" xlink:href="#G"/><use transform="matrix(0.05,0,0,0.05,12.950000000000001,0)" xlink:href="#H"/><use transform="matrix(0.05,0,0,0.05,16.900000000000002,0)" xlink:href="#I"/><use transform="matrix(0.05,0,0,0.05,26.900000000000002,0)" xlink:href="#J"/><use transform="matrix(0.05,0,0,0.05,36.900000000000006,0)" xlink:href="#K"/></g><path fill="#147eba" d="M30-248c87 1 191-15 191 75 0 78-77 80-158 76V0H30v-248zm33 125c57 0 124 11 124-50 0-59-68-47-124-48v98" id="L"/><path fill="#147eba" d="M114-163C36-179 61-72 57 0H25l-1-190h30c1 12-1 29 2 39 6-27 23-49 58-41v29" id="M"/><path fill="#147eba" d="M24-231v-30h32v30H24zM24 0v-190h32V0H24" id="N"/><path fill="#147eba" d="M108 0H70L1-190h34L89-25l56-165h34" id="O"/><path fill="#147eba" d="M141-36C126-15 110 5 73 4 37 3 15-17 15-53c-1-64 63-63 125-63 3-35-9-54-41-54-24 1-41 7-42 31l-33-3c5-37 33-52 76-52 45 0 72 20 72 64v82c-1 20 7 32 28 27v20c-31 9-61-2-59-35zM48-53c0 20 12 33 32 33 41-3 63-29 60-74-43 2-92-5-92 41" id="P"/><path fill="#147eba" d="M59-47c-2 24 18 29 38 22v24C64 9 27 4 27-40v-127H5v-23h24l9-43h21v43h35v23H59v120" id="Q"/><path fill="#147eba" d="M100-194c63 0 86 42 84 106H49c0 40 14 67 53 68 26 1 43-12 49-29l28 8c-11 28-37 45-77 45C44 4 14-33 15-96c1-61 26-98 85-98zm52 81c6-60-76-77-97-28-3 7-6 17-6 28h103" id="R"/><g id="c"><use transform="matrix(0.05,0,0,0.05,0,0)" xlink:href="#L"/><use transform="matrix(0.05,0,0,0.05,12,0)" xlink:href="#M"/><use transform="matrix(0.05,0,0,0.05,17.95,0)" xlink:href="#N"/><use transform="matrix(0.05,0,0,0.05,21.9,0)" xlink:href="#O"/><use transform="matrix(0.05,0,0,0.05,30.899999999999995,0)" xlink:href="#P"/><use transform="matrix(0.05,0,0,0.05,40.9,0)" xlink:href="#Q"/><use transform="matrix(0.05,0,0,0.05,45.9,0)" xlink:href="#R"/></g><path fill="#147eba" d="M185-189c-5-48-123-54-124 2 14 75 158 14 163 119 3 78-121 87-175 55-17-10-28-26-33-46l33-7c5 56 141 63 141-1 0-78-155-14-162-118-5-82 145-84 179-34 5 7 8 16 11 25" id="S"/><path fill="#147eba" d="M84 4C-5 8 30-112 23-190h32v120c0 31 7 50 39 49 72-2 45-101 50-169h31l1 190h-30c-1-10 1-25-2-33-11 22-28 36-60 37" id="T"/><path fill="#147eba" d="M115-194c53 0 69 39 70 98 0 66-23 100-70 100C84 3 66-7 56-30L54 0H23l1-261h32v101c10-23 28-34 59-34zm-8 174c40 0 45-34 45-75 0-40-5-75-45-74-42 0-51 32-51 76 0 43 10 73 51 73" id="U"/><path fill="#147eba" d="M117-194c89-4 53 116 60 194h-32v-121c0-31-8-49-39-48C34-167 62-67 57 0H25l-1-190h30c1 10-1 24 2 32 11-22 29-35 61-36" id="V"/><g id="d"><use transform="matrix(0.05,0,0,0.05,0,0)" xlink:href="#S"/><use transform="matrix(0.05,0,0,0.05,12,0)" xlink:href="#T"/><use transform="matrix(0.05,0,0,0.05,22,0)" xlink:href="#U"/><use transform="matrix(0.05,0,0,0.05,32,0)" xlink:href="#V"/><use transform="matrix(0.05,0,0,0.05,42,0)" xlink:href="#R"/><use transform="matrix(0.05,0,0,0.05,52,0)" xlink:href="#Q"/></g><path fill="#147eba" d="M205 0l-28-72H64L36 0H1l101-248h38L239 0h-34zm-38-99l-47-123c-12 45-31 82-46 123h93" id="W"/><use transform="matrix(0.05,0,0,0.05,0,0)" xlink:href="#W" id="e"/><path fill="#147eba" d="M160-131c35 5 61 23 61 61C221 17 115-2 30 0v-248c76 3 177-17 177 60 0 33-19 50-47 57zm-97-11c50-1 110 9 110-42 0-47-63-36-110-37v79zm0 115c55-2 124 14 124-45 0-56-70-42-124-44v89" id="X"/><use transform="matrix(0.05,0,0,0.05,0,0)" xlink:href="#X" id="f"/><path fill="#248814" d="M137 0h-34L2-248h35l83 218 83-218h36" id="Y"/><path fill="#248814" d="M24-231v-30h32v30H24zM24 0v-190h32V0H24" id="Z"/><path fill="#248814" d="M114-163C36-179 61-72 57 0H25l-1-190h30c1 12-1 29 2 39 6-27 23-49 58-41v29" id="aa"/><path fill="#248814" d="M59-47c-2 24 18 29 38 22v24C64 9 27 4 27-40v-127H5v-23h24l9-43h21v43h35v23H59v120" id="ab"/><path fill="#248814" d="M84 4C-5 8 30-112 23-190h32v120c0 31 7 50 39 49 72-2 45-101 50-169h31l1 190h-30c-1-10 1-25-2-33-11 22-28 36-60 37" id="ac"/><path fill="#248814" d="M141-36C126-15 110 5 73 4 37 3 15-17 15-53c-1-64 63-63 125-63 3-35-9-54-41-54-24 1-41 7-42 31l-33-3c5-37 33-52 76-52 45 0 72 20 72 64v82c-1 20 7 32 28 27v20c-31 9-61-2-59-35zM48-53c0 20 12 33 32 33 41-3 63-29 60-74-43 2-92-5-92 41" id="ad"/><path fill="#248814" d="M24 0v-261h32V0H24" id="ae"/><g id="g"><use transform="matrix(0.05,0,0,0.05,0,0)" xlink:href="#Y"/><use transform="matrix(0.05,0,0,0.05,11.65,0)" xlink:href="#Z"/><use transform="matrix(0.05,0,0,0.05,15.600000000000001,0)" xlink:href="#aa"/><use transform="matrix(0.05,0,0,0.05,21.55,0)" xlink:href="#ab"/><use transform="matrix(0.05,0,0,0.05,26.55,0)" xlink:href="#ac"/><use transform="matrix(0.05,0,0,0.05,36.55,0)" xlink:href="#ad"/><use transform="matrix(0.05,0,0,0.05,46.55,0)" xlink:href="#ae"/></g><path fill="#248814" d="M30-248c87 1 191-15 191 75 0 78-77 80-158 76V0H30v-248zm33 125c57 0 124 11 124-50 0-59-68-47-124-48v98" id="af"/><path fill="#248814" d="M108 0H70L1-190h34L89-25l56-165h34" id="ag"/><path fill="#248814" d="M100-194c63 0 86 42 84 106H49c0 40 14 67 53 68 26 1 43-12 49-29l28 8c-11 28-37 45-77 45C44 4 14-33 15-96c1-61 26-98 85-98zm52 81c6-60-76-77-97-28-3 7-6 17-6 28h103" id="ah"/><g id="h"><use transform="matrix(0.05,0,0,0.05,0,0)" xlink:href="#af"/><use transform="matrix(0.05,0,0,0.05,12,0)" xlink:href="#aa"/><use transform="matrix(0.05,0,0,0.05,17.95,0)" xlink:href="#Z"/><use transform="matrix(0.05,0,0,0.05,21.9,0)" xlink:href="#ag"/><use transform="matrix(0.05,0,0,0.05,30.899999999999995,0)" xlink:href="#ad"/><use transform="matrix(0.05,0,0,0.05,40.9,0)" xlink:href="#ab"/><use transform="matrix(0.05,0,0,0.05,45.9,0)" xlink:href="#ah"/></g><path fill="#248814" d="M212-179c-10-28-35-45-73-45-59 0-87 40-87 99 0 60 29 101 89 101 43 0 62-24 78-52l27 14C228-24 195 4 139 4 59 4 22-46 18-125c-6-104 99-153 187-111 19 9 31 26 39 46" id="ai"/><path fill="#248814" d="M100-194c62-1 85 37 85 99 1 63-27 99-86 99S16-35 15-95c0-66 28-99 85-99zM99-20c44 1 53-31 53-75 0-43-8-75-51-75s-53 32-53 75 10 74 51 75" id="aj"/><path fill="#248814" d="M85-194c31 0 48 13 60 33l-1-100h32l1 261h-30c-2-10 0-23-3-31C134-8 116 4 85 4 32 4 16-35 15-94c0-66 23-100 70-100zm9 24c-40 0-46 34-46 75 0 40 6 74 45 74 42 0 51-32 51-76 0-42-9-74-50-73" id="ak"/><g id="i"><use transform="matrix(0.05,0,0,0.05,0,0)" xlink:href="#ai"/><use transform="matrix(0.05,0,0,0.05,12.950000000000001,0)" xlink:href="#ae"/><use transform="matrix(0.05,0,0,0.05,16.900000000000002,0)" xlink:href="#aj"/><use transform="matrix(0.05,0,0,0.05,26.900000000000002,0)" xlink:href="#ac"/><use transform="matrix(0.05,0,0,0.05,36.900000000000006,0)" xlink:href="#ak"/></g><path fill="#147eba" d="M24 0v-261h32V0H24" id="al"/><path fill="#147eba" d="M179-190L93 31C79 59 56 82 12 73V49c39 6 53-20 64-50L1-190h34L92-34l54-156h33" id="am"/><g id="j"><use transform="matrix(0.05,0,0,0.05,0,0)" xlink:href="#W"/><use transform="matrix(0.05,0,0,0.05,11.65,0)" xlink:href="#O"/><use transform="matrix(0.05,0,0,0.05,20.65,0)" xlink:href="#P"/><use transform="matrix(0.05,0,0,0.05,30.649999999999995,0)" xlink:href="#N"/><use transform="matrix(0.05,0,0,0.05,34.6,0)" xlink:href="#al"/><use transform="matrix(0.05,0,0,0.05,38.550000000000004,0)" xlink:href="#P"/><use transform="matrix(0.05,0,0,0.05,48.550000000000004,0)" xlink:href="#U"/><use transform="matrix(0.05,0,0,0.05,58.550000000000004,0)" xlink:href="#N"/><use transform="matrix(0.05,0,0,0.05,62.5,0)" xlink:href="#al"/><use transform="matrix(0.05,0,0,0.05,66.45,0)" xlink:href="#N"/><use transform="matrix(0.05,0,0,0.05,70.4,0)" xlink:href="#Q"/><use transform="matrix(0.05,0,0,0.05,75.4,0)" xlink:href="#am"/></g><path fill="#147eba" d="M209 0H11v-25l151-195H24v-28h176v25L50-27h159V0" id="an"/><path fill="#147eba" d="M100-194c62-1 85 37 85 99 1 63-27 99-86 99S16-35 15-95c0-66 28-99 85-99zM99-20c44 1 53-31 53-75 0-43-8-75-51-75s-53 32-53 75 10 74 51 75" id="ao"/><g id="k"><use transform="matrix(0.05,0,0,0.05,0,0)" xlink:href="#an"/><use transform="matrix(0.05,0,0,0.05,10.950000000000001,0)" xlink:href="#ao"/><use transform="matrix(0.05,0,0,0.05,20.950000000000003,0)" xlink:href="#V"/><use transform="matrix(0.05,0,0,0.05,30.950000000000003,0)" xlink:href="#R"/></g><path d="M205 0l-28-72H64L36 0H1l101-248h38L239 0h-34zm-38-99l-47-123c-12 45-31 82-46 123h93" id="ap"/><path d="M115-194c55 1 70 41 70 98S169 2 115 4C84 4 66-9 55-30l1 105H24l-1-265h31l2 30c10-21 28-34 59-34zm-8 174c40 0 45-34 45-75s-6-73-45-74c-42 0-51 32-51 76 0 43 10 73 51 73" id="aq"/><g id="l"><use transform="matrix(0.05,0,0,0.05,0,0)" xlink:href="#ap"/><use transform="matrix(0.05,0,0,0.05,12,0)" xlink:href="#aq"/><use transform="matrix(0.05,0,0,0.05,22,0)" xlink:href="#aq"/></g><path d="M185-189c-5-48-123-54-124 2 14 75 158 14 163 119 3 78-121 87-175 55-17-10-28-26-33-46l33-7c5 56 141 63 141-1 0-78-155-14-162-118-5-82 145-84 179-34 5 7 8 16 11 25" id="ar"/><path d="M100-194c63 0 86 42 84 106H49c0 40 14 67 53 68 26 1 43-12 49-29l28 8c-11 28-37 45-77 45C44 4 14-33 15-96c1-61 26-98 85-98zm52 81c6-60-76-77-97-28-3 7-6 17-6 28h103" id="as"/><path d="M114-163C36-179 61-72 57 0H25l-1-190h30c1 12-1 29 2 39 6-27 23-49 58-41v29" id="at"/><path d="M108 0H70L1-190h34L89-25l56-165h34" id="au"/><g id="m"><use transform="matrix(0.05,0,0,0.05,0,0)" xlink:href="#ar"/><use transform="matrix(0.05,0,0,0.05,12,0)" xlink:href="#as"/><use transform="matrix(0.05,0,0,0.05,22,0)" xlink:href="#at"/><use transform="matrix(0.05,0,0,0.05,27.950000000000003,0)" xlink:href="#au"/><use transform="matrix(0.05,0,0,0.05,36.95,0)" xlink:href="#as"/><use transform="matrix(0.05,0,0,0.05,46.95,0)" xlink:href="#at"/></g><path d="M266 0h-40l-56-210L115 0H75L2-248h35L96-30l15-64 43-154h32l59 218 59-218h35" id="av"/><path d="M115-194c53 0 69 39 70 98 0 66-23 100-70 100C84 3 66-7 56-30L54 0H23l1-261h32v101c10-23 28-34 59-34zm-8 174c40 0 45-34 45-75 0-40-5-75-45-74-42 0-51 32-51 76 0 43 10 73 51 73" id="aw"/><g id="n"><use transform="matrix(0.05,0,0,0.05,0,0)" xlink:href="#av"/><use transform="matrix(0.05,0,0,0.05,16.599999999999998,0)" xlink:href="#as"/><use transform="matrix(0.05,0,0,0.05,26.599999999999994,0)" xlink:href="#aw"/><use transform="matrix(0.05,0,0,0.05,36.599999999999994,0)" xlink:href="#ap"/><use transform="matrix(0.05,0,0,0.05,48.599999999999994,0)" xlink:href="#aq"/><use transform="matrix(0.05,0,0,0.05,58.599999999999994,0)" xlink:href="#aq"/></g><path d="M160-131c35 5 61 23 61 61C221 17 115-2 30 0v-248c76 3 177-17 177 60 0 33-19 50-47 57zm-97-11c50-1 110 9 110-42 0-47-63-36-110-37v79zm0 115c55-2 124 14 124-45 0-56-70-42-124-44v89" id="ax"/><path d="M84 4C-5 8 30-112 23-190h32v120c0 31 7 50 39 49 72-2 45-101 50-169h31l1 190h-30c-1-10 1-25-2-33-11 22-28 36-60 37" id="ay"/><path d="M96-169c-40 0-48 33-48 73s9 75 48 75c24 0 41-14 43-38l32 2c-6 37-31 61-74 61-59 0-76-41-82-99-10-93 101-131 147-64 4 7 5 14 7 22l-32 3c-4-21-16-35-41-35" id="az"/><path d="M143 0L79-87 56-68V0H24v-261h32v163l83-92h37l-77 82L181 0h-38" id="aA"/><path d="M59-47c-2 24 18 29 38 22v24C64 9 27 4 27-40v-127H5v-23h24l9-43h21v43h35v23H59v120" id="aB"/><g id="o"><use transform="matrix(0.05,0,0,0.05,0,0)" xlink:href="#ax"/><use transform="matrix(0.05,0,0,0.05,12,0)" xlink:href="#ay"/><use transform="matrix(0.05,0,0,0.05,22,0)" xlink:href="#az"/><use transform="matrix(0.05,0,0,0.05,31,0)" xlink:href="#aA"/><use transform="matrix(0.05,0,0,0.05,40,0)" xlink:href="#as"/><use transform="matrix(0.05,0,0,0.05,50,0)" xlink:href="#aB"/></g><path fill="#248814" d="M115-194c53 0 69 39 70 98 0 66-23 100-70 100C84 3 66-7 56-30L54 0H23l1-261h32v101c10-23 28-34 59-34zm-8 174c40 0 45-34 45-75 0-40-5-75-45-74-42 0-51 32-51 76 0 43 10 73 51 73" id="aC"/><path fill="#248814" d="M96-169c-40 0-48 33-48 73s9 75 48 75c24 0 41-14 43-38l32 2c-6 37-31 61-74 61-59 0-76-41-82-99-10-93 101-131 147-64 4 7 5 14 7 22l-32 3c-4-21-16-35-41-35" id="aD"/><g id="p"><use transform="matrix(0.05,0,0,0.05,0,0)" xlink:href="#af"/><use transform="matrix(0.05,0,0,0.05,12,0)" xlink:href="#ac"/><use transform="matrix(0.05,0,0,0.05,22,0)" xlink:href="#aC"/><use transform="matrix(0.05,0,0,0.05,32,0)" xlink:href="#ae"/><use transform="matrix(0.05,0,0,0.05,35.95,0)" xlink:href="#Z"/><use transform="matrix(0.05,0,0,0.05,39.900000000000006,0)" xlink:href="#aD"/></g><path fill="#248814" d="M185-189c-5-48-123-54-124 2 14 75 158 14 163 119 3 78-121 87-175 55-17-10-28-26-33-46l33-7c5 56 141 63 141-1 0-78-155-14-162-118-5-82 145-84 179-34 5 7 8 16 11 25" id="aE"/><path fill="#248814" d="M117-194c89-4 53 116 60 194h-32v-121c0-31-8-49-39-48C34-167 62-67 57 0H25l-1-190h30c1 10-1 24 2 32 11-22 29-35 61-36" id="aF"/><g id="q"><use transform="matrix(0.05,0,0,0.05,0,0)" xlink:href="#aE"/><use transform="matrix(0.05,0,0,0.05,12,0)" xlink:href="#ac"/><use transform="matrix(0.05,0,0,0.05,22,0)" xlink:href="#aC"/><use transform="matrix(0.05,0,0,0.05,32,0)" xlink:href="#aF"/><use transform="matrix(0.05,0,0,0.05,42,0)" xlink:href="#ah"/><use transform="matrix(0.05,0,0,0.05,52,0)" xlink:href="#ab"/></g><path fill="#248814" d="M205 0l-28-72H64L36 0H1l101-248h38L239 0h-34zm-38-99l-47-123c-12 45-31 82-46 123h93" id="aG"/><use transform="matrix(0.05,0,0,0.05,0,0)" xlink:href="#aG" id="r"/><path fill="#248814" d="M160-131c35 5 61 23 61 61C221 17 115-2 30 0v-248c76 3 177-17 177 60 0 33-19 50-47 57zm-97-11c50-1 110 9 110-42 0-47-63-36-110-37v79zm0 115c55-2 124 14 124-45 0-56-70-42-124-44v89" id="aH"/><use transform="matrix(0.05,0,0,0.05,0,0)" xlink:href="#aH" id="s"/><path d="M30 0v-248h187v28H63v79h144v27H63v87h162V0H30" id="aI"/><path d="M30 0v-248h33v221h125V0H30" id="aJ"/><g id="t"><use transform="matrix(0.05,0,0,0.05,0,0)" xlink:href="#aI"/><use transform="matrix(0.05,0,0,0.05,12,0)" xlink:href="#aJ"/><use transform="matrix(0.05,0,0,0.05,22,0)" xlink:href="#ax"/></g><path fill="#d86613" d="M205 0l-28-72H64L36 0H1l101-248h38L239 0h-34zm-38-99l-47-123c-12 45-31 82-46 123h93" id="aK"/><path fill="#d86613" d="M84 4C-5 8 30-112 23-190h32v120c0 31 7 50 39 49 72-2 45-101 50-169h31l1 190h-30c-1-10 1-25-2-33-11 22-28 36-60 37" id="aL"/><path fill="#d86613" d="M59-47c-2 24 18 29 38 22v24C64 9 27 4 27-40v-127H5v-23h24l9-43h21v43h35v23H59v120" id="aM"/><path fill="#d86613" d="M100-194c62-1 85 37 85 99 1 63-27 99-86 99S16-35 15-95c0-66 28-99 85-99zM99-20c44 1 53-31 53-75 0-43-8-75-51-75s-53 32-53 75 10 74 51 75" id="aN"/><g id="u"><use transform="matrix(0.05,0,0,0.05,0,0)" xlink:href="#aK"/><use transform="matrix(0.05,0,0,0.05,12,0)" xlink:href="#aL"/><use transform="matrix(0.05,0,0,0.05,22,0)" xlink:href="#aM"/><use transform="matrix(0.05,0,0,0.05,27,0)" xlink:href="#aN"/></g><path fill="#d86613" d="M185-189c-5-48-123-54-124 2 14 75 158 14 163 119 3 78-121 87-175 55-17-10-28-26-33-46l33-7c5 56 141 63 141-1 0-78-155-14-162-118-5-82 145-84 179-34 5 7 8 16 11 25" id="aO"/><path fill="#d86613" d="M96-169c-40 0-48 33-48 73s9 75 48 75c24 0 41-14 43-38l32 2c-6 37-31 61-74 61-59 0-76-41-82-99-10-93 101-131 147-64 4 7 5 14 7 22l-32 3c-4-21-16-35-41-35" id="aP"/><path fill="#d86613" d="M141-36C126-15 110 5 73 4 37 3 15-17 15-53c-1-64 63-63 125-63 3-35-9-54-41-54-24 1-41 7-42 31l-33-3c5-37 33-52 76-52 45 0 72 20 72 64v82c-1 20 7 32 28 27v20c-31 9-61-2-59-35zM48-53c0 20 12 33 32 33 41-3 63-29 60-74-43 2-92-5-92 41" id="aQ"/><path fill="#d86613" d="M24 0v-261h32V0H24" id="aR"/><path fill="#d86613" d="M24-231v-30h32v30H24zM24 0v-190h32V0H24" id="aS"/><path fill="#d86613" d="M117-194c89-4 53 116 60 194h-32v-121c0-31-8-49-39-48C34-167 62-67 57 0H25l-1-190h30c1 10-1 24 2 32 11-22 29-35 61-36" id="aT"/><path fill="#d86613" d="M177-190C167-65 218 103 67 71c-23-6-38-20-44-43l32-5c15 47 100 32 89-28v-30C133-14 115 1 83 1 29 1 15-40 15-95c0-56 16-97 71-98 29-1 48 16 59 35 1-10 0-23 2-32h30zM94-22c36 0 50-32 50-73 0-42-14-75-50-75-39 0-46 34-46 75s6 73 46 73" id="aU"/><g id="v"><use transform="matrix(0.05,0,0,0.05,0,0)" xlink:href="#aO"/><use transform="matrix(0.05,0,0,0.05,12,0)" xlink:href="#aP"/><use transform="matrix(0.05,0,0,0.05,21,0)" xlink:href="#aQ"/><use transform="matrix(0.05,0,0,0.05,31,0)" xlink:href="#aR"/><use transform="matrix(0.05,0,0,0.05,34.95,0)" xlink:href="#aS"/><use transform="matrix(0.05,0,0,0.05,38.900000000000006,0)" xlink:href="#aT"/><use transform="matrix(0.05,0,0,0.05,48.900000000000006,0)" xlink:href="#aU"/></g><path d="M137 0h-34L2-248h35l83 218 83-218h36" id="aV"/><path d="M30-248c87 1 191-15 191 75 0 78-77 80-158 76V0H30v-248zm33 125c57 0 124 11 124-50 0-59-68-47-124-48v98" id="aW"/><path d="M212-179c-10-28-35-45-73-45-59 0-87 40-87 99 0 60 29 101 89 101 43 0 62-24 78-52l27 14C228-24 195 4 139 4 59 4 22-46 18-125c-6-104 99-153 187-111 19 9 31 26 39 46" id="aX"/><g id="w"><use transform="matrix(0.05,0,0,0.05,0,0)" xlink:href="#aV"/><use transform="matrix(0.05,0,0,0.05,12,0)" xlink:href="#aW"/><use transform="matrix(0.05,0,0,0.05,24,0)" xlink:href="#aX"/></g><path d="M190 0L58-211 59 0H30v-248h39L202-35l-2-213h31V0h-41" id="aY"/><path d="M127-220V0H93v-220H8v-28h204v28h-85" id="aZ"/><g id="x"><use transform="matrix(0.05,0,0,0.05,0,0)" xlink:href="#aY"/><use transform="matrix(0.05,0,0,0.05,12.950000000000001,0)" xlink:href="#ap"/><use transform="matrix(0.05,0,0,0.05,23.6,0)" xlink:href="#aZ"/></g><path d="M177-190C167-65 218 103 67 71c-23-6-38-20-44-43l32-5c15 47 100 32 89-28v-30C133-14 115 1 83 1 29 1 15-40 15-95c0-56 16-97 71-98 29-1 48 16 59 35 1-10 0-23 2-32h30zM94-22c36 0 50-32 50-73 0-42-14-75-50-75-39 0-46 34-46 75s6 73 46 73" id="ba"/><path d="M141-36C126-15 110 5 73 4 37 3 15-17 15-53c-1-64 63-63 125-63 3-35-9-54-41-54-24 1-41 7-42 31l-33-3c5-37 33-52 76-52 45 0 72 20 72 64v82c-1 20 7 32 28 27v20c-31 9-61-2-59-35zM48-53c0 20 12 33 32 33 41-3 63-29 60-74-43 2-92-5-92 41" id="bb"/><path d="M206 0h-36l-40-164L89 0H53L-1-190h32L70-26l43-164h34l41 164 42-164h31" id="bc"/><path d="M179-190L93 31C79 59 56 82 12 73V49c39 6 53-20 64-50L1-190h34L92-34l54-156h33" id="bd"/><g id="y"><use transform="matrix(0.05,0,0,0.05,0,0)" xlink:href="#ba"/><use transform="matrix(0.05,0,0,0.05,10,0)" xlink:href="#bb"/><use transform="matrix(0.05,0,0,0.05,20,0)" xlink:href="#aB"/><use transform="matrix(0.05,0,0,0.05,25,0)" xlink:href="#as"/><use transform="matrix(0.05,0,0,0.05,35,0)" xlink:href="#bc"/><use transform="matrix(0.05,0,0,0.05,47.95,0)" xlink:href="#bb"/><use transform="matrix(0.05,0,0,0.05,57.95,0)" xlink:href="#bd"/></g><path d="M33 0v-248h34V0H33" id="be"/><path d="M117-194c89-4 53 116 60 194h-32v-121c0-31-8-49-39-48C34-167 62-67 57 0H25l-1-190h30c1 10-1 24 2 32 11-22 29-35 61-36" id="bf"/><g id="z"><use transform="matrix(0.05,0,0,0.05,0,0)" xlink:href="#be"/><use transform="matrix(0.05,0,0,0.05,5,0)" xlink:href="#bf"/><use transform="matrix(0.05,0,0,0.05,15,0)" xlink:href="#aB"/><use transform="matrix(0.05,0,0,0.05,20,0)" xlink:href="#as"/><use transform="matrix(0.05,0,0,0.05,30,0)" xlink:href="#at"/><use transform="matrix(0.05,0,0,0.05,35.95,0)" xlink:href="#bf"/><use transform="matrix(0.05,0,0,0.05,45.95,0)" xlink:href="#as"/><use transform="matrix(0.05,0,0,0.05,55.95,0)" xlink:href="#aB"/></g><g id="A"><use transform="matrix(0.05,0,0,0.05,0,0)" xlink:href="#ap"/><use transform="matrix(0.05,0,0,0.05,11.35,0)" xlink:href="#av"/><use transform="matrix(0.05,0,0,0.05,28.299999999999997,0)" xlink:href="#ar"/></g><path d="M143 4C61 4 22-44 18-125c-5-107 100-154 193-111 17 8 29 25 37 43l-32 9c-13-25-37-40-76-40-61 0-88 39-88 99 0 61 29 100 91 101 35 0 62-11 79-27v-45h-74v-28h105v86C228-13 192 4 143 4" id="bg"/><path d="M24 0v-261h32V0H24" id="bh"/><g id="B"><use transform="matrix(0.05,0,0,0.05,0,0)" xlink:href="#bg"/><use transform="matrix(0.05,0,0,0.05,14,0)" xlink:href="#as"/><use transform="matrix(0.05,0,0,0.05,24,0)" xlink:href="#bf"/><use transform="matrix(0.05,0,0,0.05,34,0)" xlink:href="#as"/><use transform="matrix(0.05,0,0,0.05,44,0)" xlink:href="#at"/><use transform="matrix(0.05,0,0,0.05,49.95,0)" xlink:href="#bb"/><use transform="matrix(0.05,0,0,0.05,59.95,0)" xlink:href="#bh"/></g><path d="M232-93c-1 65-40 97-104 97C67 4 28-28 28-90v-158h33c8 89-33 224 67 224 102 0 64-133 71-224h33v155" id="bi"/><path d="M135-143c-3-34-86-38-87 0 15 53 115 12 119 90S17 21 10-45l28-5c4 36 97 45 98 0-10-56-113-15-118-90-4-57 82-63 122-42 12 7 21 19 24 35" id="bj"/><g id="C"><use transform="matrix(0.05,0,0,0.05,0,0)" xlink:href="#bi"/><use transform="matrix(0.05,0,0,0.05,12.950000000000001,0)" xlink:href="#bj"/><use transform="matrix(0.05,0,0,0.05,21.950000000000003,0)" xlink:href="#as"/><use transform="matrix(0.05,0,0,0.05,31.950000000000003,0)" xlink:href="#at"/><use transform="matrix(0.05,0,0,0.05,37.900000000000006,0)" xlink:href="#bj"/></g></defs></g></svg>